<svg width="150" height="39" viewBox="0 0 556 179" fill="none" xmlns="http://www.w3.org/2000/svg">
                <path d="M105.588 146.436C102.17 150.83 98.4102 154.932 94.3086 158.74C90.3047 162.549 85.9102 165.869 81.125 168.701C76.4375 171.533 71.457 173.779 66.1836 175.439C60.9102 177.1 55.4414 177.93 49.7773 177.93C42.5508 177.93 35.9102 176.66 29.8555 174.121C23.8008 171.484 18.5762 167.92 14.1816 163.428C9.78711 158.838 6.36914 153.467 3.92773 147.314C1.48633 141.064 0.265625 134.375 0.265625 127.246C0.265625 121.387 1.0957 115.625 2.75586 109.961C4.41602 104.297 6.75977 98.9746 9.78711 93.9941C12.8145 89.0137 16.3789 84.4238 20.4805 80.2246C24.6797 75.9277 29.2695 72.2656 34.25 69.2383C39.2305 66.2109 44.5039 63.8672 50.0703 62.207C55.6367 60.4492 61.3496 59.5703 67.209 59.5703C71.3105 59.5703 75.168 60.0586 78.7812 61.0352C82.4922 62.0117 85.7637 63.5742 88.5957 65.7227C91.4277 67.7734 93.6738 70.459 95.334 73.7793C96.9941 77.002 97.8242 80.8594 97.8242 85.3516C97.8242 89.0625 96.7012 92.9688 94.4551 97.0703C92.3066 101.172 89.4258 105.273 85.8125 109.375C82.2969 113.477 78.293 117.529 73.8008 121.533C69.3086 125.439 64.7188 129.102 60.0312 132.52C55.4414 135.84 50.998 138.77 46.7012 141.309C42.4043 143.848 38.6445 145.801 35.4219 147.168C39.0352 151.66 43.2344 155.322 48.0195 158.154C52.8047 160.986 57.8828 162.402 63.2539 162.402C66.6719 162.402 70.1387 161.768 73.6543 160.498C77.1699 159.131 80.5391 157.422 83.7617 155.371C87.082 153.32 90.207 151.074 93.1367 148.633C96.1641 146.191 98.8496 143.896 101.193 141.748L105.588 146.436ZM70.2852 90.7715C70.2852 88.5254 69.8945 86.377 69.1133 84.3262C68.4297 82.2754 67.4043 80.5176 66.0371 79.0527C64.6699 77.4902 63.0098 76.2695 61.0566 75.3906C59.2012 74.4141 57.0527 73.9258 54.6113 73.9258C50.2168 73.9258 46.1641 75.4883 42.4531 78.6133C38.7422 81.6406 35.5195 85.4004 32.7852 89.8926C30.1484 94.3848 28.0488 99.1699 26.4863 104.248C25.0215 109.229 24.2891 113.623 24.2891 117.432C24.2891 121.143 24.875 124.951 26.0469 128.857C27.2188 132.764 28.8301 136.523 30.8809 140.137C34.7871 137.988 39.0352 135.01 43.625 131.201C48.2148 127.393 52.4629 123.242 56.3691 118.75C60.373 114.16 63.6934 109.424 66.3301 104.541C68.9668 99.6582 70.2852 95.0684 70.2852 90.7715ZM435.178 143.213C431.76 147.607 428 151.904 423.898 156.104C419.895 160.205 415.5 163.867 410.715 167.09C406.027 170.312 401.047 172.949 395.773 175C390.5 176.953 385.031 177.93 379.367 177.93C372.141 177.93 365.5 176.66 359.445 174.121C353.391 171.582 348.166 167.969 343.771 163.281C339.377 158.594 335.959 152.93 333.518 146.289C331.076 139.648 329.855 132.227 329.855 124.023C329.855 115.43 331.564 107.275 334.982 99.5605C338.498 91.8457 343.137 85.1074 348.898 79.3457C354.758 73.4863 361.545 68.8965 369.26 65.5762C376.975 62.1582 385.08 60.4492 393.576 60.4492C396.896 60.4492 400.217 60.791 403.537 61.4746C406.955 62.0605 410.178 63.0371 413.205 64.4043C416.33 65.6738 419.162 67.4316 421.701 69.6777C424.338 71.8262 426.535 74.4141 428.293 77.4414L407.346 88.8672C406.369 86.5234 404.953 84.4727 403.098 82.7148C401.34 80.957 399.338 79.4922 397.092 78.3203C394.846 77.1484 392.453 76.2695 389.914 75.6836C387.473 75.0977 385.08 74.8047 382.736 74.8047C378.049 74.8047 373.85 75.8789 370.139 78.0273C366.428 80.0781 363.254 82.8125 360.617 86.2305C358.078 89.5508 356.125 93.3594 354.758 97.6562C353.391 101.855 352.707 106.152 352.707 110.547C352.707 118.945 353.732 126.367 355.783 132.812C357.834 139.258 360.666 144.678 364.279 149.072C367.893 153.467 372.141 156.787 377.023 159.033C381.906 161.279 387.229 162.402 392.99 162.402C396.311 162.402 399.729 161.572 403.244 159.912C406.76 158.252 410.129 156.201 413.352 153.76C416.672 151.221 419.797 148.535 422.727 145.703C425.754 142.871 428.439 140.332 430.783 138.086L435.178 143.213ZM499.338 178.369C492.111 178.369 485.324 177.1 478.977 174.561C472.727 171.924 467.258 168.311 462.57 163.721C457.98 159.131 454.318 153.76 451.584 147.607C448.947 141.357 447.629 134.57 447.629 127.246C447.629 118.945 448.996 111.182 451.73 103.955C454.465 96.6309 458.225 90.0391 463.01 84.1797C467.893 78.3203 473.605 73.2422 480.148 68.9453C486.789 64.6484 493.967 61.2793 501.682 58.8379L505.93 63.9648C501.535 67.1875 497.434 70.8984 493.625 75.0977C489.816 79.1992 486.496 83.6914 483.664 88.5742C480.832 93.3594 478.586 98.4375 476.926 103.809C475.266 109.082 474.436 114.502 474.436 120.068C474.436 124.756 475.119 129.688 476.486 134.863C477.854 140.039 479.904 144.775 482.639 149.072C485.373 153.369 488.791 156.934 492.893 159.766C497.092 162.5 501.926 163.867 507.395 163.867C512.277 163.867 516.477 162.988 519.992 161.23C523.605 159.473 526.584 157.08 528.928 154.053C531.271 151.025 533.029 147.51 534.201 143.506C535.373 139.404 535.959 135.107 535.959 130.615C535.959 125.342 534.934 119.971 532.883 114.502C530.832 108.936 528 103.809 524.387 99.1211C520.871 94.4336 516.721 90.5273 511.936 87.4023C507.15 84.2773 502.023 82.4707 496.555 81.9824C499.973 78.0762 503.732 74.4629 507.834 71.1426C511.936 67.8223 516.086 64.6484 520.285 61.6211C525.949 63.4766 530.93 66.2109 535.227 69.8242C539.621 73.4375 543.283 77.5879 546.213 82.2754C549.24 86.9629 551.535 92.0898 553.098 97.6562C554.66 103.125 555.441 108.691 555.441 114.355C555.441 122.07 554.074 129.736 551.34 137.354C548.703 144.971 544.895 151.855 539.914 158.008C535.031 164.062 529.123 168.994 522.189 172.803C515.354 176.514 507.736 178.369 499.338 178.369Z" fill="#72CB96"/>
                <path d="M241.379 157.568C240.207 160.107 238.742 162.5 236.984 164.746C235.227 166.992 233.176 168.994 230.832 170.752C228.586 172.51 226.096 173.926 223.361 175C220.725 175.977 217.941 176.465 215.012 176.465C207.297 176.465 201.73 174.365 198.312 170.166C194.992 165.869 193.332 160.059 193.332 152.734V150.098C191.574 153.418 189.572 156.738 187.326 160.059C185.178 163.379 182.688 166.357 179.855 168.994C177.121 171.631 174.045 173.779 170.627 175.439C167.209 177.1 163.4 177.93 159.201 177.93C152.854 177.93 147.238 176.709 142.355 174.268C137.473 171.826 133.371 168.555 130.051 164.453C126.73 160.254 124.24 155.371 122.58 149.805C120.92 144.238 120.09 138.33 120.09 132.08C120.09 123.584 121.555 115.137 124.484 106.738C127.512 98.2422 131.711 90.6738 137.082 84.0332C142.551 77.3926 149.045 72.0215 156.564 67.9199C164.182 63.7207 172.629 61.6211 181.906 61.6211C185.617 61.6211 189.328 61.9629 193.039 62.6465C196.75 63.3301 200.266 64.4531 203.586 66.0156C207.004 67.4805 210.08 69.4336 212.814 71.875C215.646 74.3164 217.941 77.2949 219.699 80.8105L197.873 90.0391C196.701 88.1836 195.334 86.4258 193.771 84.7656C192.307 83.0078 190.646 81.4941 188.791 80.2246C187.033 78.9551 185.129 77.9297 183.078 77.1484C181.027 76.3672 178.879 75.9766 176.633 75.9766C171.555 75.9766 167.014 77.5391 163.01 80.6641C159.104 83.7891 155.734 87.6465 152.902 92.2363C150.168 96.8262 148.068 101.709 146.604 106.885C145.139 112.061 144.406 116.748 144.406 120.947C144.406 124.658 144.748 128.857 145.432 133.545C146.213 138.135 147.531 142.48 149.387 146.582C151.242 150.684 153.684 154.15 156.711 156.982C159.738 159.814 163.547 161.23 168.137 161.23C171.75 161.23 174.875 160.449 177.512 158.887C180.148 157.227 182.395 155.127 184.25 152.588C186.105 149.951 187.619 146.973 188.791 143.652C190.061 140.234 190.988 136.768 191.574 133.252C192.258 129.736 192.697 126.27 192.893 122.852C193.186 119.336 193.332 116.211 193.332 113.477V103.369L219.992 93.9941V153.467C219.992 155.42 220.48 157.227 221.457 158.887C222.434 160.449 223.947 161.23 225.998 161.23C228.439 161.23 230.637 160.352 232.59 158.594C234.641 156.738 236.252 154.883 237.424 153.027L241.379 157.568ZM311.105 157.861C308.859 162.646 306.271 166.309 303.342 168.848C300.412 171.387 297.531 173.242 294.699 174.414C291.477 175.781 288.156 176.562 284.738 176.758C280.344 176.758 276.73 176.074 273.898 174.707C271.164 173.34 268.967 171.533 267.307 169.287C265.744 167.041 264.621 164.502 263.938 161.67C263.352 158.838 263.059 155.957 263.059 153.027V76.2695H247.531L253.83 61.6211H263.059V9.76562L289.865 0.390625V61.6211H317.697L311.691 76.2695H289.865V153.76C289.865 156.104 290.402 157.959 291.477 159.326C292.551 160.693 293.918 161.426 295.578 161.523C297.238 161.523 299.094 160.889 301.145 159.619C303.195 158.35 305.197 156.299 307.15 153.467L311.105 157.861Z" fill="#E38C09"/>
                </svg>